<?xml version="1.0" encoding="utf-8"?>
<!-- Generator: Adobe Illustrator 16.0.0, SVG Export Plug-In . SVG Version: 6.00 Build 0)  -->
<!DOCTYPE svg PUBLIC "-//W3C//DTD SVG 1.1//EN" "http://www.w3.org/Graphics/SVG/1.1/DTD/svg11.dtd">
<svg version="1.1" id="Layer_3" xmlns="http://www.w3.org/2000/svg" xmlns:xlink="http://www.w3.org/1999/xlink" x="0px" y="0px"
	 width="111.708px" height="109.5px" viewBox="0 21.271 111.708 109.5" enable-background="new 0 21.271 111.708 109.5"
	 xml:space="preserve">
<polygon fill="#F4F4F4" points="109.688,130.826 40.149,130.826 0,63.798 69.538,63.798 "/>
<g>
	<path fill="#545456" d="M42.229,108.531c1.984,0.03,7.938,0.25,7.938,0.25s1.688-0.375,1.688-1.938c0,0,2.638,0.414,3.5,0.25
		c0.567-0.107,1.438-0.688,1.438-1.813v-1.688c0,0,1.875-0.063,2.375-0.563c0,0,0.215,1.911,0.457,2.521
		c0.551,1.379,2.349,3.469,3.584,4.293c0.418,0.278,0.531,0.024,1.271-0.734c0.367-0.377,1.476-0.45,0.729-1.266
		c-0.771-0.842-2.494-2.355-2.916-3.418c-0.26-0.654,0.219-2.164,0.438-2.832c0.085-0.26,0.6-0.856,1.063-0.25
		c0.906,1.184,1.537,4.268,2.666,5.332c0.388,0.365,0.709-0.287,1.24-0.816c0,0,1.317,0.564,1.094-0.475
		c-0.479-2.229-3.5-8.354-3.5-8.354l-0.063-0.75l0.813-2.063l-2.5-1l-2.625-0.063l-1.625,0.875l-6.125,0.375c0,0-4.012,0.023-5,2
		c-0.441,0.885-0.875,1.938-0.813,3.875l-0.063,1.75c0,0-1.313,0.875-1.313,2.25c0,0-2.198-0.12-3.063,0.021L42.229,108.531z"/>
	<circle fill="#545456" cx="64.354" cy="90.343" r="6"/>
	<path fill="#E4E6E7" d="M53.157,103.657c-0.074-0.057-0.146-0.109-0.225-0.174c-0.047-0.039-0.09-0.115-0.131-0.188
		c-0.897-1.017-1.469-2.541-1.469-4.246c0-1.95,0.748-3.661,1.875-4.649c-0.715-0.012-3.629,0.015-4.666,1.192
		c-0.76,0.86-1.188,1.203-1.22,4.733c0,0,1.281-0.047,1.656,0.203c0,0,1.833,1.086,2.594,3c0.159,0.399,0.688,0.969,1.375,1.03
		h1.845c0,0-0.207-0.034-0.582-0.221C53.833,104.18,53.478,103.949,53.157,103.657z"/>
	<ellipse fill="#545456" cx="42.604" cy="106.414" rx="2.125" ry="2.132"/>
	<circle fill="#545456" cx="64.213" cy="108.858" r="1.422"/>
	<circle fill="#545456" cx="67.37" cy="105.608" r="1.422"/>
</g>
<g>
	<g>
		<line fill="none" stroke="#F4F4F4" stroke-miterlimit="10" x1="36.417" y1="64.042" x2="36.417" y2="63.042"/>
		
			<line fill="none" stroke="#F4F4F4" stroke-miterlimit="10" stroke-dasharray="1.9706,1.9706,1.9706,1.9706" x1="36.417" y1="61.071" x2="36.417" y2="54.174"/>
		
			<line fill="none" stroke="#F4F4F4" stroke-miterlimit="10" stroke-dasharray="1.9706,1.9706,1.9706,1.9706,1.9706,1.9706" x1="36.417" y1="53.188" x2="36.417" y2="30.527"/>
		<line fill="none" stroke="#F4F4F4" stroke-miterlimit="10" x1="36.417" y1="29.542" x2="36.417" y2="28.542"/>
	</g>
</g>
<rect x="33.667" y="23.292" fill="#F4F4F4" width="5.5" height="5.5"/>
</svg>
