<?xml version="1.0" encoding="utf-8"?>
<!-- Generator: Adobe Illustrator 16.0.0, SVG Export Plug-In . SVG Version: 6.00 Build 0)  -->
<!DOCTYPE svg PUBLIC "-//W3C//DTD SVG 1.1//EN" "http://www.w3.org/Graphics/SVG/1.1/DTD/svg11.dtd">
<svg version="1.1" id="_x31_6" xmlns="http://www.w3.org/2000/svg" xmlns:xlink="http://www.w3.org/1999/xlink" x="0px" y="0px"
	 width="62.266px" height="55.896px" viewBox="0 0 62.266 55.896" enable-background="new 0 0 62.266 55.896" xml:space="preserve">
<path fill="#233337" d="M57.693,10.676H46.88H33.656h-5.04h-7.264H4.579c-2.523,0-4.574,2.053-4.574,4.575v32.091
	c0,2.523,2.052,4.576,4.574,4.576h15.044l-1.722,1.854h-2.581c-0.586,0-1.063,0.477-1.063,1.063s0.477,1.063,1.063,1.063h8.136
	h3.859h7.638h0.831H46.95c0.586,0,1.063-0.477,1.063-1.063s-0.477-1.063-1.063-1.063h-2.579l-1.725-1.854h15.048
	c2.521,0,4.571-2.053,4.571-4.576V15.251C62.267,12.728,60.215,10.676,57.693,10.676z M4.579,12.801h17.836h5.541h6.359h13.152
	h10.227c0.969,0,1.806,0.569,2.202,1.389H48.102H34.515h-6.757h-5.272H2.375C2.772,13.369,3.609,12.801,4.579,12.801z
	 M35.999,53.771h-1.183h-7.363h-3.326H20.8l1.723-1.854h1.824h3.183h7.21h1.338h3.67l1.723,1.854H35.999z M57.693,49.795H36.045
	h-1.382h-7.055h-3.613H4.579c-1.027,0-1.905-0.635-2.27-1.531h21.214h4.178h6.871H36h23.963
	C59.598,49.16,58.718,49.795,57.693,49.795z M60.143,46.138H35.944h-1.536h-6.542h-5.604H2.128V16.312h19.504h6.106h6.792h14.608
	h11.003L60.143,46.138L60.143,46.138z"/>
<g>
	<rect x="31.633" y="18.823" fill="#F4F4F4" width="19" height="25.125"/>
	<path fill="#233337" d="M52.346,39.897v-6.77c0.003-0.002,0.003-0.002,0.003-0.003V20.282c0-1.645-1.584-2.983-3.533-2.983h-3.988
		l0.013,0.01h-9.692L35.105,17.3h-1.313c-1.82,0-3.309,1.175-3.493,2.674l0.003,0.016L30.258,42.38l0.006,0.007L30.26,42.51
		c0,1.646,1.585,2.983,3.531,2.983h15.024c1.949,0,3.533-1.338,3.533-2.983v-2.396l0.019,0.02
		C52.345,40.062,52.367,39.969,52.346,39.897z M32.582,20.192c0-0.362,0.349-0.657,0.776-0.657h15.89
		c0.431,0,0.779,0.294,0.779,0.657v1.641H32.582V20.192z M49.865,42.528c0,0.355-0.343,0.646-0.766,0.646H33.508
		c-0.42,0-0.763-0.29-0.763-0.646v-1.609h17.119V42.528z M49.983,38.973H32.627V23.821h17.355V38.973z"/>
</g>
<g>
	<rect x="12.258" y="21.073" fill="#F4F4F4" width="13.75" height="21.5"/>
	<path fill="#233337" d="M27.227,39.167v-5.84c0.002-0.001,0.002-0.001,0.002-0.002V22.247c0-1.419-1.154-2.573-2.574-2.573h-2.906
		l0.01,0.009h-7.063l-0.031-0.008h-0.957c-1.326,0-2.41,1.014-2.545,2.306l0.002,0.015l-0.031,19.313l0.004,0.006l-0.002,0.107
		c0,1.419,1.154,2.573,2.572,2.573h10.947c1.42,0,2.574-1.154,2.574-2.573v-2.067l0.014,0.017
		C27.226,39.308,27.242,39.228,27.227,39.167z M13.172,22.247c0-0.296,0.24-0.536,0.535-0.536h10.947
		c0.297,0,0.537,0.24,0.537,0.536v1.338h-12.02V22.247z M25.192,41.421c0,0.296-0.24,0.536-0.537,0.536H13.707
		c-0.295,0-0.535-0.24-0.535-0.536v-1.338h12.02V41.421z M25.192,38.046h-12.02V25.623h12.02V38.046z"/>
</g>
</svg>
