<?xml version="1.0" encoding="utf-8"?>
<!-- Generator: Adobe Illustrator 16.0.0, SVG Export Plug-In . SVG Version: 6.00 Build 0)  -->
<!DOCTYPE svg PUBLIC "-//W3C//DTD SVG 1.1//EN" "http://www.w3.org/Graphics/SVG/1.1/DTD/svg11.dtd">
<svg version="1.1" id="_x31_6" xmlns="http://www.w3.org/2000/svg" xmlns:xlink="http://www.w3.org/1999/xlink" x="0px" y="0px"
	 width="62.266px" height="55.896px" viewBox="0 0 62.266 55.896" enable-background="new 0 0 62.266 55.896" xml:space="preserve">
<path fill="#233337" d="M57.693,10.676H46.88H33.656h-5.04h-7.264H4.579c-2.523,0-4.574,2.053-4.574,4.575v32.091
	c0,2.523,2.052,4.576,4.574,4.576h15.044l-1.722,1.854h-2.581c-0.586,0-1.063,0.477-1.063,1.063s0.477,1.063,1.063,1.063h8.136
	h3.859h7.638h0.831H46.95c0.586,0,1.063-0.477,1.063-1.063s-0.477-1.063-1.063-1.063h-2.579l-1.725-1.854h15.048
	c2.521,0,4.571-2.053,4.571-4.576V15.251C62.267,12.728,60.215,10.676,57.693,10.676z M4.579,12.801h17.836h5.541h6.359h13.152
	h10.227c0.969,0,1.806,0.569,2.202,1.389H48.102H34.515h-6.757h-5.272H2.375C2.772,13.369,3.609,12.801,4.579,12.801z
	 M35.999,53.771h-1.183h-7.363h-3.326H20.8l1.723-1.854h1.824h3.183h7.21h1.338h3.67l1.723,1.854H35.999z M57.693,49.795H36.045
	h-1.382h-7.055h-3.613H4.579c-1.027,0-1.905-0.635-2.27-1.531h21.214h4.178h6.871H36h23.963
	C59.598,49.16,58.718,49.795,57.693,49.795z M60.143,46.138H35.944h-1.536h-6.542h-5.604H2.128V16.312h19.504h6.106h6.792h14.608
	h11.003L60.143,46.138L60.143,46.138z"/>
<g id="XMLID_2_">
	<path id="XMLID_7_" fill="#233337" d="M26.628,37.304l-0.657,0.656c-0.087,0.088-0.188,0.133-0.302,0.133s-0.215-0.045-0.302-0.133
		l-6.124-6.123c-0.088-0.086-0.131-0.188-0.131-0.301s0.043-0.215,0.131-0.301l6.124-6.124c0.087-0.087,0.188-0.132,0.302-0.132
		c0.113,0,0.214,0.043,0.302,0.132l0.657,0.657c0.087,0.086,0.132,0.188,0.132,0.302s-0.044,0.215-0.132,0.302l-5.164,5.164
		l5.164,5.166c0.087,0.088,0.131,0.188,0.131,0.303C26.76,37.119,26.715,37.217,26.628,37.304z M34.395,23.285l-4.901,16.963
		c-0.034,0.113-0.104,0.199-0.204,0.258c-0.1,0.055-0.203,0.066-0.309,0.031l-0.814-0.225c-0.113-0.033-0.199-0.102-0.257-0.201
		c-0.058-0.104-0.067-0.209-0.033-0.322l4.902-16.965c0.035-0.113,0.102-0.199,0.203-0.257c0.1-0.058,0.203-0.067,0.309-0.032
		l0.816,0.225c0.11,0.034,0.197,0.103,0.256,0.203C34.418,23.064,34.429,23.171,34.395,23.285z M43.028,31.838l-6.123,6.123
		c-0.088,0.088-0.188,0.133-0.303,0.133c-0.113,0-0.216-0.045-0.303-0.133l-0.657-0.656c-0.087-0.088-0.132-0.186-0.132-0.301
		s0.045-0.215,0.132-0.303l5.164-5.164l-5.164-5.165c-0.087-0.088-0.132-0.188-0.132-0.303s0.045-0.216,0.132-0.304l0.657-0.655
		c0.087-0.089,0.188-0.132,0.303-0.132c0.113,0,0.215,0.043,0.303,0.132l6.123,6.122c0.088,0.088,0.13,0.189,0.13,0.303
		C43.157,31.652,43.115,31.752,43.028,31.838z"/>
</g>
</svg>
