<?xml version="1.0" encoding="utf-8"?>
<!-- Generator: Adobe Illustrator 16.0.0, SVG Export Plug-In . SVG Version: 6.00 Build 0)  -->
<!DOCTYPE svg PUBLIC "-//W3C//DTD SVG 1.1//EN" "http://www.w3.org/Graphics/SVG/1.1/DTD/svg11.dtd">
<svg version="1.1" id="Layer_3" xmlns="http://www.w3.org/2000/svg" xmlns:xlink="http://www.w3.org/1999/xlink" x="0px" y="0px"
	 width="35.583px" height="44.25px" viewBox="0 0 35.583 44.25" style="enable-background:new 0 0 35.583 44.25;"
	 xml:space="preserve">
<style type="text/css">
<![CDATA[
	.st0{fill:none;stroke:#FFFFFF;stroke-width:0.5;stroke-linecap:round;stroke-miterlimit:10;}
	.st1{fill:#545456;}
]]>
</style>
<g>
	<circle class="st1" cx="19.667" cy="5.746" r="5.667"/>
	<path class="st1" d="M19.667,11.413c0,0,3.042,2.542,6.542,6.833c0,0-0.125,0.292,0.583,0l6.708-3.125l1.375,2.5l-8.042,4.083
		c0,0-0.916,0.791-1.958-0.417l-3.458-3.958c0,0-0.417-0.208-0.625,0.292l-2.667,6.667c0,0-0.375,0.459,0.083,1.042l4.094,5.354
		c0,0,0.25,0.375,0.594,1.531c0,0,2.313,7,2.813,9.625l-3.781,1.219l-2.75-9.125c0,0-1.344-3.031-2.563-4.031
		c0,0-0.469-0.344-0.781,0.375c0,0-0.594,2-1.156,2.719c0,0-0.406,1-1.875,1.156L2.428,35.746L1.74,31.871l9.188-1.625
		c0,0,0.719-0.188,1.094-1.375l1.063-2.938c0,0,0.125-0.969-0.5-1.375L9.74,22.871c0,0-2.5-1.25-2.594-2.656l-0.313-0.906l-1.25,1
		L3.709,18.09l4.563-4.625c0,0,0.531-0.188,0.938-2.25c0,0,1.25-1.625,2.531-1.563c0,0,1.031-0.094,2,0.688h3.781L19.667,11.413z"/>
	<circle class="st1" cx="34.209" cy="16.355" r="1.438"/>
	<ellipse class="st1" cx="4.764" cy="19.105" rx="1.477" ry="1.438"/>
	<ellipse class="st1" cx="1.99" cy="33.855" rx="2.031" ry="1.99"/>
	<circle class="st1" cx="23.748" cy="42.27" r="1.992"/>
	<path class="st0" d="M15.834,11.705c0,0-3.208-0.833-3.875,2.333l-1.875,6.542c0,0-0.083,1.583,0.208,2.5"/>
	<path class="st0" d="M12.792,9.621c0,0-3.208-0.833-3.875,2.333l-1.875,6.542c0,0-0.083,1.583,0.208,2.5"/>
	<line class="st0" x1="10.428" y1="14.652" x2="9.553" y2="17.434"/>
	<line class="st0" x1="9.334" y1="13.84" x2="8.459" y2="16.621"/>
</g>
</svg>
