<?xml version="1.0" encoding="utf-8"?>
<!-- Generator: Adobe Illustrator 16.0.0, SVG Export Plug-In . SVG Version: 6.00 Build 0)  -->
<!DOCTYPE svg PUBLIC "-//W3C//DTD SVG 1.1//EN" "http://www.w3.org/Graphics/SVG/1.1/DTD/svg11.dtd">
<svg version="1.1" id="Layer_3" xmlns="http://www.w3.org/2000/svg" xmlns:xlink="http://www.w3.org/1999/xlink" x="0px" y="0px"
	 width="111.708px" height="109.5px" viewBox="0 21.271 111.708 109.5" enable-background="new 0 21.271 111.708 109.5"
	 xml:space="preserve">
<polygon fill="#F4F4F4" points="109.688,88.299 40.149,88.299 0,21.271 69.538,21.271 "/>
<g>
	<g>
		<circle fill="#545456" cx="56.443" cy="38.36" r="5.667"/>
		<path fill="#545456" d="M56.443,44.027c0,0,3.042,2.542,6.542,6.833c0,0-0.125,0.292,0.583,0l6.708-3.125l1.375,2.5l-8.042,4.083
			c0,0-0.916,0.791-1.958-0.417l-3.458-3.958c0,0-0.417-0.208-0.625,0.292l-2.667,6.667c0,0-0.375,0.459,0.083,1.042l4.095,5.354
			c0,0,0.25,0.375,0.594,1.53c0,0,2.313,7,2.813,9.625l-3.781,1.22l-2.75-9.125c0,0-1.344-3.031-2.563-4.031
			c0,0-0.469-0.344-0.781,0.375c0,0-0.594,2-1.156,2.719c0,0-0.406,1-1.875,1.156L39.205,68.36l-0.688-3.875l9.188-1.625
			c0,0,0.719-0.188,1.094-1.375l1.063-2.938c0,0,0.125-0.97-0.5-1.375l-2.845-1.688c0,0-2.5-1.25-2.594-2.656l-0.313-0.905l-1.25,1
			l-1.874-2.22l4.563-4.625c0,0,0.531-0.188,0.938-2.25c0,0,1.25-1.625,2.531-1.563c0,0,1.03-0.094,2,0.688h3.78L56.443,44.027z"/>
		<circle fill="#545456" cx="70.985" cy="48.969" r="1.438"/>
		<ellipse fill="#545456" cx="41.539" cy="51.719" rx="1.478" ry="1.438"/>
		<ellipse fill="#545456" cx="38.766" cy="66.469" rx="2.031" ry="1.99"/>
		<circle fill="#545456" cx="60.524" cy="74.885" r="1.992"/>
		<path fill="none" stroke="#FFFFFF" stroke-width="0.5" stroke-linecap="round" stroke-miterlimit="10" d="M52.61,44.319
			c0,0-3.208-0.833-3.875,2.333l-1.875,6.542c0,0-0.083,1.583,0.208,2.5"/>
		<path fill="none" stroke="#FFFFFF" stroke-width="0.5" stroke-linecap="round" stroke-miterlimit="10" d="M49.568,42.235
			c0,0-3.208-0.833-3.875,2.333l-1.875,6.542c0,0-0.083,1.583,0.208,2.5"/>
		
			<line fill="none" stroke="#FFFFFF" stroke-width="0.5" stroke-linecap="round" stroke-miterlimit="10" x1="47.203" y1="47.266" x2="46.328" y2="50.049"/>
		
			<line fill="none" stroke="#FFFFFF" stroke-width="0.5" stroke-linecap="round" stroke-miterlimit="10" x1="46.11" y1="46.454" x2="45.235" y2="49.235"/>
	</g>
</g>
<g>
	<g>
		<line fill="none" stroke="#F4F4F4" stroke-miterlimit="10" x1="74.735" y1="88.265" x2="74.735" y2="89.265"/>
		
			<line fill="none" stroke="#F4F4F4" stroke-miterlimit="10" stroke-dasharray="1.9706,1.9706,1.9706,1.9706" x1="74.735" y1="91.235" x2="74.735" y2="98.132"/>
		
			<line fill="none" stroke="#F4F4F4" stroke-miterlimit="10" stroke-dasharray="1.9706,1.9706,1.9706,1.9706,1.9706,1.9706" x1="74.735" y1="99.118" x2="74.735" y2="121.778"/>
		<line fill="none" stroke="#F4F4F4" stroke-miterlimit="10" x1="74.735" y1="122.765" x2="74.735" y2="123.765"/>
	</g>
</g>
<rect x="71.985" y="123.515" fill="#F4F4F4" width="5.5" height="5.5"/>
</svg>
