<?xml version="1.0" encoding="utf-8"?>
<!-- Generator: Adobe Illustrator 16.0.0, SVG Export Plug-In . SVG Version: 6.00 Build 0)  -->
<!DOCTYPE svg PUBLIC "-//W3C//DTD SVG 1.1//EN" "http://www.w3.org/Graphics/SVG/1.1/DTD/svg11.dtd">
<svg version="1.1" id="Layer_3" xmlns="http://www.w3.org/2000/svg" xmlns:xlink="http://www.w3.org/1999/xlink" x="0px" y="0px"
	 width="22.583px" height="52.615px" viewBox="0 0 22.583 52.615" style="enable-background:new 0 0 22.583 52.615;"
	 xml:space="preserve">
<style type="text/css">
<![CDATA[
	.st0{fill:none;stroke:#545456;stroke-width:0.5;stroke-miterlimit:10;}
	.st1{fill:#545456;}
]]>
</style>
<g>
	<circle class="st1" cx="14.438" cy="7.307" r="5.438"/>
	<path class="st0" d="M8.438,5.432c0,0,1.438-5.375,5.875-5.125c0,0,6-0.25,6.188,6"/>
	<ellipse class="st1" cx="8.584" cy="7.536" rx="1.333" ry="2.25"/>
	<ellipse class="st1" cx="20.334" cy="7.994" rx="1.333" ry="2.25"/>
	<path class="st1" d="M16.375,12.807c0,0,3.625,0.813,4.438,1.75c0,0,0.813,0.5,0.938,1.813l0.813,16.438h-2.938l-0.375-8.313
		c0,0-0.688-0.75-0.781,0.375c0,0-0.219,4.016-0.234,5.719c-0.001,0.088-0.109,0.313-0.109,0.313l0.126,19.386l-4.417,0.041
		l0.042-17.875l-1.959,0.042l-0.125,17.75l-4.333,0.083l-0.083-19.75l-0.042-0.626c0,0,0.042-10.042,0.375-10.875
		c0,0-0.225-0.301-0.365,0.199c0,0-0.453,3.719-0.938,4.531c0,0-1.531,1.344-2.547-0.281c0,0-3.734-6.927-3.692-7.302
		c0,0-0.251-0.789-0.063-1.174c0.052-0.107,0.292-0.375,0.292-0.375l0.063-3.892l2.813-0.021c0,0-0.241,4.057,0.146,5.333
		c0.1,0.329,0.575,0.915,0.688,1.188c0.057,0.138,0.23,0.312,0.521-0.292c0,0,0.354-2.167,0.479-2.354c0,0,0.146-1.958,3.146-1.979
		l3.438,0.021l1.771,2.021c0,0,0.334,0.271,0.729-0.083S16.375,12.807,16.375,12.807z"/>
	<circle class="st1" cx="21.099" cy="32.745" r="1.479"/>
	<ellipse class="st1" cx="16.033" cy="50.37" rx="2.217" ry="2.197"/>
	<ellipse class="st1" cx="9.622" cy="50.37" rx="2.175" ry="2.197"/>
</g>
</svg>
