<?xml version="1.0" encoding="utf-8"?>
<!-- Generator: Adobe Illustrator 16.0.0, SVG Export Plug-In . SVG Version: 6.00 Build 0)  -->
<!DOCTYPE svg PUBLIC "-//W3C//DTD SVG 1.1//EN" "http://www.w3.org/Graphics/SVG/1.1/DTD/svg11.dtd">
<svg version="1.1" id="Layer_1" xmlns="http://www.w3.org/2000/svg" xmlns:xlink="http://www.w3.org/1999/xlink" x="0px" y="0px"
	 width="48.766px" height="64.984px" viewBox="0 0 48.766 64.984" style="enable-background:new 0 0 48.766 64.984;"
	 xml:space="preserve">
<style type="text/css">
<![CDATA[
	.st0{fill:#233337;}
]]>
</style>
<g id="XMLID_1_">
	<path id="XMLID_6_" class="st0" d="M24.391,0.016c-13.447,0-24.375,10.156-24.375,22.344c0,18.362,24.375,42.656,24.375,42.656
		s24.375-24.294,24.375-42.656C48.766,10.172,37.838,0.016,24.391,0.016z M24.391,59.125C16.834,50.878,4.078,34.303,4.078,22.359
		c0-10.075,9.141-18.281,20.313-18.281c5.443,0,10.604,1.95,14.463,5.525c3.737,3.494,5.85,8.003,5.85,12.756
		C44.703,34.303,31.947,50.878,24.391,59.125z M32.516,22.359c0,4.509-3.615,8.125-8.125,8.125c-4.509,0-8.125-3.616-8.125-8.125
		s3.616-8.125,8.125-8.125C28.9,14.234,32.516,17.85,32.516,22.359z"/>
</g>
</svg>
