<?xml version="1.0" encoding="utf-8"?>
<!-- Generator: Adobe Illustrator 16.0.0, SVG Export Plug-In . SVG Version: 6.00 Build 0)  -->
<!DOCTYPE svg PUBLIC "-//W3C//DTD SVG 1.1//EN" "http://www.w3.org/Graphics/SVG/1.1/DTD/svg11.dtd">
<svg version="1.1" id="Layer_1" xmlns="http://www.w3.org/2000/svg" xmlns:xlink="http://www.w3.org/1999/xlink" x="0px" y="0px"
	 width="544px" height="279.063px" viewBox="0 0 544 279.063" style="enable-background:new 0 0 544 279.063;" xml:space="preserve"
	>
<style type="text/css">
<![CDATA[
	.st0{fill:none;stroke:#F4F4F4;stroke-width:17;stroke-linecap:square;stroke-miterlimit:10;}
	.st1{fill:#F4F4F4;}
]]>
</style>
<rect x="8.5" y="8.531" class="st0" width="527" height="262"/>
<g>
	<path class="st1" d="M260.405,226.437c0.786,1.834,0.786,2.358,0.786,3.145c0,2.096-1.572,3.144-4.454,3.144H98.231
		c-2.882,0-4.978-1.572-4.978-3.93c0-0.786,0-1.572,0.524-2.358l78.074-178.155c1.31-2.62,2.62-3.406,5.502-3.406h0.786
		c3.406,0,3.93,0.786,5.24,3.406C183.379,48.281,260.405,226.175,260.405,226.437z M124.431,210.455h106.107L177.615,85.746
		L124.431,210.455z"/>
	<path class="st1" d="M303.637,66.621c-2.882,0-4.192-1.834-4.192-4.454v-13.1c0-2.62,1.31-3.93,4.192-3.93h63.402
		c25.938,0.262,49.779,20.959,49.779,49.517c0,14.409-6.288,28.557-17.291,38.513c16.768,9.956,27.246,27.509,27.246,46.373
		c0,28.819-24.365,53.185-52.398,53.185h-83.837c-2.62,0-4.454-1.31-4.454-3.93v-99.296c0-2.358,1.834-4.192,4.192-4.192h75.191
		c15.982,0,29.082-13.1,29.082-29.081c0-16.768-11.789-29.605-28.819-29.605H303.637z M307.567,211.241h66.546
		c17.029,0,29.867-15.72,30.391-31.964c0-17.029-12.575-32.486-30.391-32.486h-66.546V211.241z"/>
</g>
</svg>
