<?xml version="1.0" encoding="utf-8"?>
<!-- Generator: Adobe Illustrator 16.0.0, SVG Export Plug-In . SVG Version: 6.00 Build 0)  -->
<!DOCTYPE svg PUBLIC "-//W3C//DTD SVG 1.1//EN" "http://www.w3.org/Graphics/SVG/1.1/DTD/svg11.dtd">
<svg version="1.1" id="Layer_1" xmlns="http://www.w3.org/2000/svg" xmlns:xlink="http://www.w3.org/1999/xlink" x="0px" y="0px"
	 width="65.031px" height="59.656px" viewBox="0 0 65.031 59.656" style="enable-background:new 0 0 65.031 59.656;"
	 xml:space="preserve">
<style type="text/css">
<![CDATA[
	.st0{fill:#233337;}
]]>
</style>
<g id="XMLID_1_">
	<path id="XMLID_3_" class="st0" d="M32.531,27.445l11.749-7.05c-0.962-0.869-2.224-1.417-3.624-1.417h-16.25
		c-1.4,0-2.662,0.547-3.624,1.417L32.531,27.445z"/>
	<path id="XMLID_4_" class="st0" d="M33.576,31.557c-0.322,0.192-0.682,0.287-1.045,0.287s-0.723-0.095-1.045-0.287l-12.464-7.48
		l-0.032,0.32v10.833c0,2.989,2.426,5.416,5.417,5.416h16.25c2.99,0,5.417-2.427,5.417-5.416V24.396l-0.033-0.32L33.576,31.557z"/>
	<path id="XMLID_5_" class="st0" d="M56.278,35.229c-2.474,10.839-12.172,18.958-23.747,18.958
		c-10.982,0-20.283-7.302-23.321-17.304l7.071-7.071H0.031v16.25l4.948-4.948c4.463,10.836,15.126,18.49,27.552,18.49
		c14.576,0,26.718-10.53,29.274-24.375H56.278z"/>
	<path id="XMLID_6_" class="st0" d="M60.083,18.511C55.62,7.677,44.957,0.021,32.531,0.021c-14.576,0-26.718,10.53-29.274,24.375
		h5.528C11.257,13.557,20.956,5.438,32.531,5.438c10.982,0,20.282,7.302,23.321,17.306l-7.071,7.069h16.25v-16.25L60.083,18.511z"/>
</g>
</svg>
