<?xml version="1.0" encoding="utf-8"?>
<!-- Generator: Adobe Illustrator 16.0.0, SVG Export Plug-In . SVG Version: 6.00 Build 0)  -->
<!DOCTYPE svg PUBLIC "-//W3C//DTD SVG 1.1//EN" "http://www.w3.org/Graphics/SVG/1.1/DTD/svg11.dtd">
<svg version="1.1" id="_x31_6" xmlns="http://www.w3.org/2000/svg" xmlns:xlink="http://www.w3.org/1999/xlink" x="0px" y="0px"
	 width="62.266px" height="55.896px" viewBox="0 0 62.266 55.896" enable-background="new 0 0 62.266 55.896" xml:space="preserve">
<g>
	<path fill="#233337" d="M57.706,14.783H42.708l-1.479-0.014c-0.04,0.021-0.061,0.032-0.071,0.04
		c-0.013-0.006-0.042-0.012-0.119-0.012c-0.142,0-0.15-0.035-0.104-0.085c-0.082,0.009-0.16,0.025-0.249,0.025
		c-0.044,0-0.083-0.009-0.125-0.013c0.022,0.026,0.027,0.046,0,0.043l-0.743,0.014H22.644l-1.319-0.014
		c-0.461,0.027-0.414,0.078-0.359,0.102c-0.049-0.015-0.154-0.039-0.368-0.084l-0.844-0.004H4.754c-2.514,0-4.561,2.047-4.561,4.56
		v31.996c0,2.514,2.045,4.559,4.561,4.559h52.952c2.514,0,4.56-2.045,4.56-4.559V19.343C62.266,16.83,60.22,14.783,57.706,14.783z
		 M4.754,16.902h52.952c1.021,0,1.899,0.632,2.262,1.525H2.49C2.854,17.533,3.731,16.902,4.754,16.902z M57.706,53.781H4.754
		c-0.968,0-1.801-0.568-2.197-1.383h57.346C59.507,53.213,58.673,53.781,57.706,53.781z M60.149,50.279H2.311V20.546h57.836v29.733
		H60.149z"/>
	<circle fill="none" stroke="#233337" stroke-width="2" stroke-miterlimit="10" cx="31.23" cy="35.258" r="12.533"/>
	<path fill="none" stroke="#233337" stroke-width="2" stroke-miterlimit="10" d="M31.23,28.827c3.552,0,6.428,2.876,6.428,6.429
		s-2.876,6.426-6.428,6.426s-6.428-2.875-6.428-6.426S27.68,28.827,31.23,28.827z"/>
	<polygon fill="none" stroke="#233337" stroke-width="2" stroke-miterlimit="10" points="37.506,8.014 24.031,8.014 20.906,14.989 
		40.955,14.989 	"/>
	<polygon fill="none" stroke="#233337" stroke-miterlimit="10" points="34.492,11.283 27.194,11.283 25.5,14.77 36.363,14.77 	"/>
</g>
</svg>
