<?xml version="1.0" encoding="utf-8"?>
<!-- Generator: Adobe Illustrator 16.0.0, SVG Export Plug-In . SVG Version: 6.00 Build 0)  -->
<!DOCTYPE svg PUBLIC "-//W3C//DTD SVG 1.1//EN" "http://www.w3.org/Graphics/SVG/1.1/DTD/svg11.dtd">
<svg version="1.1" id="Layer_3" xmlns="http://www.w3.org/2000/svg" xmlns:xlink="http://www.w3.org/1999/xlink" x="0px" y="0px"
	 width="26.833px" height="45.458px" viewBox="0 0 26.833 45.458" style="enable-background:new 0 0 26.833 45.458;"
	 xml:space="preserve">
<style type="text/css">
<![CDATA[
	.st0{fill:#545456;}
]]>
</style>
<g>
	<circle class="st0" cx="5.583" cy="40" r="5.5"/>
	<circle class="st0" cx="15.667" cy="5.583" r="5.5"/>
	<path class="st0" d="M7.583,35.083L7.5,29.417c0,0,4.51-0.141,6.667-0.333c0.157-0.014,0.297-0.432,0.625,0.052l0.031,13.781
		l3.969,0.094L18.76,27.667c0,0,0.969-3.313,2.219-11.125c0,0,0.188-0.375,0.438,0.063l1.979,2.5c0,0,0.313,0.417,0,0.938
		L19.833,24.2l-0.688,0.729l2.417,1.125l5.021-5.479c0,0,0.708-0.813-0.188-2.063c0,0-3.271-4.687-3.771-5.082
		c0,0-2.354-1.688-6.271-1.979c0,0-0.417-0.583-0.125-0.938s-1.792-0.479-1.792-0.479s0.021,1.062-0.688,1.208
		c0,0-2.655-0.103-3.505,0.127c-2.002,0.541-2.412,0.88-5.995,5.561c-0.479,0.626-0.437,1.737-0.104,3.153l0.896,5.259l2.667-0.042
		l-0.604-6.271c0,0-0.063-0.583,0.333-1l2.771-2.956c0,0,0.354-0.333,0.458,0.042l-0.042,9.313c0,0,0.042,0.542-0.438,0.542
		l-2.271,0.104c0,0-2.833-0.146-3.563,0.563c0,0-0.813,0.03-0.813,2.217l0.063,7.531L7.583,35.083z"/>
	<ellipse class="st0" cx="16.807" cy="42.928" rx="1.984" ry="2"/>
	<ellipse class="st0" cx="20.463" cy="25.386" rx="1.258" ry="1.391"/>
</g>
</svg>
