<?xml version="1.0" encoding="utf-8"?>
<!-- Generator: Adobe Illustrator 16.0.0, SVG Export Plug-In . SVG Version: 6.00 Build 0)  -->
<!DOCTYPE svg PUBLIC "-//W3C//DTD SVG 1.1//EN" "http://www.w3.org/Graphics/SVG/1.1/DTD/svg11.dtd">
<svg version="1.1" id="Layer_3" xmlns="http://www.w3.org/2000/svg" xmlns:xlink="http://www.w3.org/1999/xlink" x="0px" y="0px"
	 width="474.417px" height="209.541px" viewBox="0 0 474.417 209.541" enable-background="new 0 0 474.417 209.541"
	 xml:space="preserve">
<polygon fill="#F4F4F4" points="109.688,138.284 40.149,138.284 0,71.256 69.538,71.256 "/>
<polygon fill="#F4F4F4" points="200.87,138.284 131.331,138.284 91.182,71.256 160.72,71.256 "/>
<polygon fill="#F4F4F4" points="292.052,138.284 222.513,138.284 182.365,71.256 251.903,71.256 "/>
<polygon fill="#F4F4F4" points="383.234,138.284 313.695,138.284 273.546,71.256 343.083,71.256 "/>
<polygon fill="#F4F4F4" points="474.417,138.284 404.876,138.284 364.728,71.256 434.267,71.256 "/>
<g>
	<path fill="#545456" d="M46.043,114.142c1.657,0.025,6.631,0.209,6.631,0.209s1.41-0.313,1.41-1.619c0,0,2.204,0.346,2.924,0.209
		c0.474-0.09,1.201-0.574,1.201-1.514v-1.411c0,0,1.566-0.053,1.984-0.471c0,0,0.18,1.597,0.382,2.106
		c0.46,1.152,1.962,2.897,2.994,3.586c0.349,0.232,0.444,0.021,1.062-0.613c0.307-0.314,1.233-0.376,0.609-1.057
		c-0.644-0.704-2.083-1.969-2.436-2.855c-0.217-0.547,0.183-1.809,0.366-2.366c0.071-0.217,0.501-0.715,0.888-0.208
		c0.757,0.988,1.284,3.564,2.227,4.453c0.324,0.305,0.592-0.24,1.036-0.682c0,0,1.1,0.471,0.914-0.396
		c-0.4-1.861-2.924-6.979-2.924-6.979l-0.053-0.626l0.679-1.723l-2.088-0.835l-2.192-0.053l-1.357,0.731l-5.117,0.313
		c0,0-3.351,0.019-4.177,1.67c-0.368,0.74-0.731,1.619-0.679,3.237l-0.053,1.462c0,0-1.097,0.73-1.097,1.879
		c0,0-1.836-0.1-2.559,0.018L46.043,114.142z"/>
	<circle fill="#545456" cx="64.524" cy="98.948" r="5.012"/>
	<path fill="#E4E6E7" d="M55.171,110.07c-0.062-0.048-0.122-0.091-0.188-0.146c-0.04-0.032-0.075-0.096-0.11-0.157
		c-0.749-0.849-1.227-2.122-1.227-3.547c0-1.628,0.625-3.058,1.566-3.883c-0.597-0.01-3.031,0.013-3.897,0.996
		c-0.635,0.719-0.992,1.005-1.02,3.954c0,0,1.07-0.04,1.384,0.169c0,0,1.531,0.908,2.167,2.507c0.133,0.333,0.575,0.81,1.148,0.859
		h1.542c0,0-0.173-0.027-0.486-0.185C55.736,110.508,55.439,110.314,55.171,110.07z"/>
	<ellipse fill="#545456" cx="46.356" cy="112.373" rx="1.775" ry="1.78"/>
	<circle fill="#545456" cx="64.407" cy="114.415" r="1.188"/>
	<circle fill="#545456" cx="67.044" cy="111.7" r="1.188"/>
</g>
<g>
	<g>
		<circle fill="#545456" cx="149.644" cy="91.05" r="4.734"/>
		<path fill="#545456" d="M149.644,95.784c0,0,2.541,2.124,5.465,5.708c0,0-0.104,0.244,0.487,0l5.604-2.61l1.148,2.088
			l-6.718,3.411c0,0-0.765,0.661-1.635-0.348l-2.889-3.306c0,0-0.349-0.174-0.522,0.244l-2.228,5.569c0,0-0.313,0.384,0.069,0.871
			l3.42,4.473c0,0,0.209,0.313,0.497,1.277c0,0,1.932,5.848,2.35,8.039l-3.158,1.021l-2.297-7.622c0,0-1.123-2.533-2.141-3.368
			c0,0-0.392-0.287-0.653,0.313c0,0-0.496,1.67-0.966,2.271c0,0-0.339,0.835-1.566,0.965l-8.667,1.332l-0.575-3.237l7.675-1.357
			c0,0,0.601-0.157,0.914-1.148l0.888-2.454c0,0,0.104-0.811-0.417-1.148l-2.376-1.411c0,0-2.088-1.044-2.167-2.218l-0.261-0.756
			l-1.044,0.835l-1.565-1.854l3.812-3.864c0,0,0.443-0.157,0.783-1.879c0,0,1.044-1.357,2.115-1.306c0,0,0.86-0.078,1.67,0.575
			h3.157L149.644,95.784z"/>
		<circle fill="#545456" cx="161.791" cy="99.912" r="1.201"/>
		<ellipse fill="#545456" cx="137.194" cy="102.209" rx="1.235" ry="1.201"/>
		<ellipse fill="#545456" cx="134.877" cy="114.531" rx="1.696" ry="1.663"/>
		<circle fill="#545456" cx="153.053" cy="121.56" r="1.664"/>
		<path fill="none" stroke="#FFFFFF" stroke-width="0.5" stroke-linecap="round" stroke-miterlimit="10" d="M146.442,96.027
			c0,0-2.68-0.696-3.237,1.949l-1.566,5.464c0,0-0.069,1.323,0.174,2.088"/>
		<path fill="none" stroke="#FFFFFF" stroke-width="0.5" stroke-linecap="round" stroke-miterlimit="10" d="M143.901,94.287
			c0,0-2.68-0.696-3.237,1.949l-1.566,5.465c0,0-0.069,1.322,0.173,2.088"/>
		
			<line fill="none" stroke="#FFFFFF" stroke-width="0.5" stroke-linecap="round" stroke-miterlimit="10" x1="141.925" y1="98.489" x2="141.194" y2="100.814"/>
		
			<line fill="none" stroke="#FFFFFF" stroke-width="0.5" stroke-linecap="round" stroke-miterlimit="10" x1="141.012" y1="97.811" x2="140.281" y2="100.134"/>
	</g>
</g>
<g>
	<g>
		<ellipse fill="#545456" cx="233.483" cy="125.655" rx="1.918" ry="1.943"/>
		<ellipse fill="#545456" cx="240.096" cy="125.619" rx="1.869" ry="1.943"/>
		<ellipse fill="#545456" cx="247.068" cy="113.4" rx="1.555" ry="1.665"/>
		<ellipse fill="#545456" cx="228.711" cy="84.173" rx="1.673" ry="1.715"/>
		<path fill="#545456" d="M242.76,112.644c-0.589,0.185-0.915,0.811-0.733,1.398l0,0c0.184,0.588,0.81,0.913,1.397,0.729
			l7.127-2.231c0.588-0.184,0.915-0.811,0.732-1.396l0,0c-0.183-0.588-0.809-0.916-1.396-0.73L242.76,112.644z"/>
		<path fill="none" stroke="#FFFFFF" stroke-width="0.3" stroke-linecap="round" stroke-miterlimit="10" d="M250.262,110.485
			c0,0-0.349,1.362,0.604,1.68"/>
		<polygon fill="#535355" points="239.861,81.942 246.229,85.143 239.356,85.777 232.902,82.53 		"/>
		<path fill="#535355" d="M242.586,86.093l0.173,2.494c0,0-3.501,1.368-7.86-1.342l0.831-2.679c0,0,2.404,1.556,3.322,1.753
			C239.917,86.504,242.586,86.093,242.586,86.093z"/>
		<path fill="#545456" d="M242.794,90.427c0,2.381-1.931,4.31-4.311,4.31s-4.311-1.929-4.311-4.31s1.931-4.311,4.311-4.311
			C240.695,86.116,242.794,89.164,242.794,90.427z"/>
		<path fill="#545456" d="M240.1,95.179c1.289,0.147,3.82,1.078,4.702,1.666c0,0,0.588,0.49,0.882,1.273l2.597,6.368
			c0,0,0.246,0.441,0.246,1.617l0.049,4.654v2.596l-2.939,0.293l-0.195-7.444c0,0-0.197-1.175-0.344-1.47l-1.519-3.428
			c0,0-0.344-0.49-0.344,0.245l0.245,3.87c0,0,0.344,4.36,0.294,6.712l0.147,4.701c0,0,0.099,1.422-1.323,1.715l-0.783,0.099
			l0.147,6.76l-3.723,0.392l-0.098-12.002l-0.442-0.146c0,0-0.147,3.332-0.539,4.262c0,0-0.784,0.393-1.078,0.099l-0.686,7.788
			l-3.821-0.343l0.735-8.278c0,0-1.127-0.539-0.882-2.107l1.323-10.14c0,0,0.882-7.446,0.686-7.985l-6.956-3.479
			c0,0-0.784,0-0.441-2.008l1.029-7.593l3.282,0.637l-1.127,6.319c0,0-0.098,0.588,0.392,0.784l6.515,2.939
			c0,0,0.686,0.196,0.833,1.372l0.735,7.397c0,0,0.147,1.715,0.686,0.147l1.273-7.543C239.66,95.913,239.893,95.155,240.1,95.179z"
			/>
	</g>
</g>
<g>
	<g>
		<circle fill="#545456" cx="330.805" cy="88.794" r="4.543"/>
		<path fill="none" stroke="#545456" stroke-width="0.5" stroke-miterlimit="10" d="M325.792,87.228c0,0,1.201-4.49,4.908-4.281
			c0,0,5.012-0.208,5.168,5.012"/>
		<ellipse fill="#545456" cx="325.914" cy="88.986" rx="1.114" ry="1.88"/>
		<ellipse fill="#545456" cx="335.729" cy="89.368" rx="1.114" ry="1.879"/>
		<path fill="#545456" d="M332.421,93.389c0,0,3.028,0.679,3.709,1.462c0,0,0.679,0.417,0.783,1.514l0.679,13.732h-2.454
			l-0.313-6.945c0,0-0.574-0.626-0.652,0.313c0,0-0.183,3.354-0.195,4.777c0,0.074-0.09,0.262-0.09,0.262l0.104,16.194l-3.689,0.033
			l0.034-14.932l-1.636,0.035l-0.104,14.828l-3.619,0.068l-0.07-16.498l-0.034-0.522c0,0,0.034-8.388,0.313-9.084
			c0,0-0.189-0.251-0.305,0.167c0,0-0.377,3.106-0.783,3.785c0,0-1.279,1.123-2.128-0.234c0,0-3.119-5.787-3.083-6.1
			c0,0-0.211-0.659-0.053-0.98c0.042-0.089,0.243-0.313,0.243-0.313l0.052-3.251l2.35-0.018c0,0-0.2,3.389,0.123,4.455
			c0.084,0.275,0.479,0.764,0.574,0.992c0.047,0.115,0.19,0.261,0.436-0.244c0,0,0.295-1.81,0.399-1.966
			c0,0,0.122-1.635,2.628-1.653l2.872,0.018l1.479,1.688c0,0,0.279,0.227,0.608-0.069C330.929,94.605,332.421,93.389,332.421,93.389
			z"/>
		<circle fill="#545456" cx="336.369" cy="110.043" r="1.236"/>
		<ellipse fill="#545456" cx="332.138" cy="124.765" rx="1.852" ry="1.835"/>
		<ellipse fill="#545456" cx="326.782" cy="124.765" rx="1.815" ry="1.835"/>
	</g>
</g>
<g>
	<g>
		<circle fill="#545456" cx="413.757" cy="119.145" r="4.595"/>
		<circle fill="#545456" cx="422.179" cy="90.396" r="4.594"/>
		<path fill="#545456" d="M415.428,115.038l-0.07-4.732c0,0,3.767-0.119,5.569-0.279c0.131-0.012,0.248-0.361,0.522,0.044
			l0.026,11.512l3.314,0.079l-0.027-12.818c0,0,0.811-2.768,1.855-9.293c0,0,0.156-0.313,0.365,0.053l1.652,2.088
			c0,0,0.263,0.348,0,0.784l-2.976,3.473l-0.574,0.608l2.019,0.939l4.194-4.576c0,0,0.591-0.679-0.158-1.723
			c0,0-2.731-3.915-3.149-4.245c0,0-1.967-1.41-5.238-1.653c0,0-0.348-0.487-0.104-0.784c0.245-0.297-1.496-0.4-1.496-0.4
			s0.018,0.887-0.574,1.009c0,0-2.219-0.086-2.929,0.106c-1.672,0.452-2.015,0.735-5.007,4.645
			c-0.401,0.523-0.366,1.451-0.089,2.634l0.749,4.394l2.229-0.035l-0.505-5.239c0,0-0.053-0.487,0.28-0.835l2.313-2.469
			c0,0,0.297-0.278,0.384,0.035l-0.036,7.78c0,0,0.036,0.453-0.365,0.453l-1.897,0.086c0,0-2.366-0.121-2.977,0.471
			c0,0-0.679,0.025-0.679,1.852l0.053,6.291L415.428,115.038z"/>
		<ellipse fill="#545456" cx="423.131" cy="121.591" rx="1.658" ry="1.67"/>
		<ellipse fill="#545456" cx="426.186" cy="106.937" rx="1.051" ry="1.162"/>
	</g>
</g>
<g>
	<g>
		<line fill="none" stroke="#F4F4F4" stroke-miterlimit="10" x1="36.417" y1="71.5" x2="36.417" y2="70.5"/>
		
			<line fill="none" stroke="#F4F4F4" stroke-miterlimit="10" stroke-dasharray="1.9706,1.9706,1.9706,1.9706" x1="36.417" y1="68.529" x2="36.417" y2="61.632"/>
		
			<line fill="none" stroke="#F4F4F4" stroke-miterlimit="10" stroke-dasharray="1.9706,1.9706,1.9706,1.9706,1.9706,1.9706" x1="36.417" y1="60.646" x2="36.417" y2="37.985"/>
		<line fill="none" stroke="#F4F4F4" stroke-miterlimit="10" x1="36.417" y1="37" x2="36.417" y2="36"/>
	</g>
</g>
<rect x="33.667" y="30.75" fill="#F4F4F4" width="5.5" height="5.5"/>
<g>
	<g>
		<line fill="none" stroke="#F4F4F4" stroke-miterlimit="10" x1="219.083" y1="71.666" x2="219.083" y2="70.666"/>
		
			<line fill="none" stroke="#F4F4F4" stroke-miterlimit="10" stroke-dasharray="1.9706,1.9706,1.9706,1.9706" x1="219.083" y1="68.696" x2="219.083" y2="61.799"/>
		
			<line fill="none" stroke="#F4F4F4" stroke-miterlimit="10" stroke-dasharray="1.9706,1.9706,1.9706,1.9706,1.9706,1.9706" x1="219.083" y1="60.813" x2="219.083" y2="38.152"/>
		<line fill="none" stroke="#F4F4F4" stroke-miterlimit="10" x1="219.083" y1="37.166" x2="219.083" y2="36.166"/>
	</g>
</g>
<rect x="216.333" y="30.916" fill="#F4F4F4" width="5.5" height="5.5"/>
<g>
	<g>
		<line fill="none" stroke="#F4F4F4" stroke-miterlimit="10" x1="401.75" y1="71.833" x2="401.75" y2="70.833"/>
		
			<line fill="none" stroke="#F4F4F4" stroke-miterlimit="10" stroke-dasharray="1.9706,1.9706,1.9706,1.9706" x1="401.75" y1="68.862" x2="401.75" y2="61.965"/>
		
			<line fill="none" stroke="#F4F4F4" stroke-miterlimit="10" stroke-dasharray="1.9706,1.9706,1.9706,1.9706,1.9706,1.9706" x1="401.75" y1="60.979" x2="401.75" y2="38.318"/>
		<line fill="none" stroke="#F4F4F4" stroke-miterlimit="10" x1="401.75" y1="37.333" x2="401.75" y2="36.333"/>
	</g>
</g>
<rect x="399" y="31.083" fill="#F4F4F4" width="5.5" height="5.5"/>
<g>
	<g>
		<line fill="none" stroke="#F4F4F4" stroke-miterlimit="10" x1="165.917" y1="138.25" x2="165.917" y2="139.25"/>
		
			<line fill="none" stroke="#F4F4F4" stroke-miterlimit="10" stroke-dasharray="1.9706,1.9706,1.9706,1.9706" x1="165.917" y1="141.221" x2="165.917" y2="148.117"/>
		
			<line fill="none" stroke="#F4F4F4" stroke-miterlimit="10" stroke-dasharray="1.9706,1.9706,1.9706,1.9706,1.9706,1.9706" x1="165.917" y1="149.104" x2="165.917" y2="171.764"/>
		<line fill="none" stroke="#F4F4F4" stroke-miterlimit="10" x1="165.917" y1="172.75" x2="165.917" y2="173.75"/>
	</g>
</g>
<rect x="163.167" y="173.5" fill="#F4F4F4" width="5.5" height="5.5"/>
<g>
	<g>
		<line fill="none" stroke="#F4F4F4" stroke-miterlimit="10" x1="347.417" y1="138.25" x2="347.417" y2="139.25"/>
		
			<line fill="none" stroke="#F4F4F4" stroke-miterlimit="10" stroke-dasharray="1.9706,1.9706,1.9706,1.9706" x1="347.417" y1="141.221" x2="347.417" y2="148.117"/>
		
			<line fill="none" stroke="#F4F4F4" stroke-miterlimit="10" stroke-dasharray="1.9706,1.9706,1.9706,1.9706,1.9706,1.9706" x1="347.417" y1="149.104" x2="347.417" y2="171.764"/>
		<line fill="none" stroke="#F4F4F4" stroke-miterlimit="10" x1="347.417" y1="172.75" x2="347.417" y2="173.75"/>
	</g>
</g>
<rect x="344.667" y="173.5" fill="#F4F4F4" width="5.5" height="5.5"/>
<g>
	<g>
		<line fill="none" stroke="#F4F4F4" stroke-miterlimit="10" x1="79.833" y1="105.417" x2="80.833" y2="105.417"/>
		
			<line fill="none" stroke="#F4F4F4" stroke-miterlimit="10" stroke-dasharray="1.9706,1.9706,1.9706,1.9706" x1="82.803" y1="105.417" x2="89.701" y2="105.417"/>
		
			<line fill="none" stroke="#F4F4F4" stroke-miterlimit="10" stroke-dasharray="1.9706,1.9706,1.9706,1.9706,1.9706,1.9706" x1="90.686" y1="105.417" x2="113.347" y2="105.417"/>
		<line fill="none" stroke="#F4F4F4" stroke-miterlimit="10" x1="114.333" y1="105.417" x2="115.333" y2="105.417"/>
	</g>
</g>
<g>
	<g>
		<line fill="none" stroke="#F4F4F4" stroke-miterlimit="10" x1="174.833" y1="105.417" x2="175.833" y2="105.417"/>
		
			<line fill="none" stroke="#F4F4F4" stroke-miterlimit="10" stroke-dasharray="1.9706,1.9706,1.9706,1.9706" x1="177.803" y1="105.417" x2="184.701" y2="105.417"/>
		
			<line fill="none" stroke="#F4F4F4" stroke-miterlimit="10" stroke-dasharray="1.9706,1.9706,1.9706,1.9706,1.9706,1.9706" x1="185.686" y1="105.417" x2="208.347" y2="105.417"/>
		<line fill="none" stroke="#F4F4F4" stroke-miterlimit="10" x1="209.333" y1="105.417" x2="210.333" y2="105.417"/>
	</g>
</g>
<g>
	<g>
		<line fill="none" stroke="#F4F4F4" stroke-miterlimit="10" x1="265.333" y1="105.417" x2="266.333" y2="105.417"/>
		
			<line fill="none" stroke="#F4F4F4" stroke-miterlimit="10" stroke-dasharray="1.9706,1.9706,1.9706,1.9706" x1="268.303" y1="105.417" x2="275.201" y2="105.417"/>
		
			<line fill="none" stroke="#F4F4F4" stroke-miterlimit="10" stroke-dasharray="1.9706,1.9706,1.9706,1.9706,1.9706,1.9706" x1="276.186" y1="105.417" x2="298.847" y2="105.417"/>
		<line fill="none" stroke="#F4F4F4" stroke-miterlimit="10" x1="299.833" y1="105.417" x2="300.833" y2="105.417"/>
	</g>
</g>
<g>
	<g>
		<line fill="none" stroke="#F4F4F4" stroke-miterlimit="10" x1="354.833" y1="105.417" x2="355.833" y2="105.417"/>
		
			<line fill="none" stroke="#F4F4F4" stroke-miterlimit="10" stroke-dasharray="1.9706,1.9706,1.9706,1.9706" x1="357.803" y1="105.417" x2="364.701" y2="105.417"/>
		
			<line fill="none" stroke="#F4F4F4" stroke-miterlimit="10" stroke-dasharray="1.9706,1.9706,1.9706,1.9706,1.9706,1.9706" x1="365.686" y1="105.417" x2="388.347" y2="105.417"/>
		<line fill="none" stroke="#F4F4F4" stroke-miterlimit="10" x1="389.333" y1="105.417" x2="390.333" y2="105.417"/>
	</g>
</g>
</svg>
