<?xml version="1.0" encoding="utf-8"?>
<!-- Generator: Adobe Illustrator 16.0.0, SVG Export Plug-In . SVG Version: 6.00 Build 0)  -->
<!DOCTYPE svg PUBLIC "-//W3C//DTD SVG 1.1//EN" "http://www.w3.org/Graphics/SVG/1.1/DTD/svg11.dtd">
<svg version="1.1" id="Layer_3" xmlns="http://www.w3.org/2000/svg" xmlns:xlink="http://www.w3.org/1999/xlink" x="0px" y="0px"
	 width="111.708px" height="109.5px" viewBox="0 21.271 111.708 109.5" enable-background="new 0 21.271 111.708 109.5"
	 xml:space="preserve">
<polygon fill="#F4F4F4" points="111.708,130.771 42.169,130.771 2.021,63.742 71.559,63.742 "/>
<g>
	<g>
		<ellipse fill="#545456" cx="51.678" cy="123.904" rx="2.448" ry="2.479"/>
		<ellipse fill="#545456" cx="60.117" cy="123.857" rx="2.385" ry="2.479"/>
		<ellipse fill="#545456" cx="69.012" cy="108.269" rx="1.983" ry="2.125"/>
		<ellipse fill="#545456" cx="45.59" cy="70.976" rx="2.135" ry="2.188"/>
		<path fill="#545456" d="M63.515,107.304c-0.751,0.234-1.168,1.033-0.936,1.781l0,0c0.234,0.75,1.033,1.168,1.783,0.933
			l9.094-2.847c0.75-0.234,1.168-1.033,0.935-1.783l0,0c-0.233-0.749-1.032-1.167-1.782-0.931L63.515,107.304z"/>
		<path fill="none" stroke="#FFFFFF" stroke-width="0.3" stroke-linecap="round" stroke-miterlimit="10" d="M73.088,104.548
			c0,0-0.446,1.739,0.769,2.143"/>
		<polygon fill="#535355" points="59.816,68.129 67.941,72.213 59.171,73.023 50.938,68.879 		"/>
		<path fill="#535355" d="M63.293,73.426l0.221,3.182c0,0-4.468,1.745-10.029-1.712l1.061-3.419c0,0,3.066,1.986,4.238,2.237
			C59.888,73.95,63.293,73.426,63.293,73.426z"/>
		<path fill="#545456" d="M63.559,78.955c0,3.038-2.463,5.5-5.5,5.5c-3.037,0-5.5-2.462-5.5-5.5c0-3.038,2.463-5.5,5.5-5.5
			C60.879,73.455,63.559,77.343,63.559,78.955z"/>
		<path fill="#545456" d="M60.121,85.019c1.646,0.188,4.875,1.375,6,2.125c0,0,0.75,0.625,1.125,1.625l3.313,8.125
			c0,0,0.313,0.563,0.313,2.063l0.063,5.938v3.313l-3.75,0.375l-0.25-9.5c0,0-0.25-1.5-0.438-1.875l-1.938-4.375
			c0,0-0.438-0.625-0.438,0.313l0.313,4.938c0,0,0.438,5.563,0.375,8.563l0.188,6c0,0,0.125,1.813-1.688,2.188l-1,0.125l0.188,8.625
			l-4.75,0.5l-0.125-15.313l-0.563-0.188c0,0-0.188,4.25-0.688,5.438c0,0-1,0.5-1.375,0.125l-0.875,9.938l-4.875-0.438l0.938-10.563
			c0,0-1.438-0.688-1.125-2.688l1.688-12.938c0,0,1.125-9.5,0.875-10.188l-8.875-4.438c0,0-1,0-0.563-2.563l1.313-9.688l4.188,0.813
			l-1.438,8.063c0,0-0.125,0.75,0.5,1l8.313,3.75c0,0,0.875,0.25,1.063,1.75l0.938,9.438c0,0,0.188,2.188,0.875,0.188l1.625-9.625
			C59.559,85.955,59.857,84.988,60.121,85.019z"/>
	</g>
</g>
<g>
	<g>
		<line fill="none" stroke="#F4F4F4" stroke-miterlimit="10" x1="38.739" y1="64.152" x2="38.739" y2="63.152"/>
		
			<line fill="none" stroke="#F4F4F4" stroke-miterlimit="10" stroke-dasharray="1.9706,1.9706,1.9706,1.9706" x1="38.739" y1="61.182" x2="38.739" y2="54.285"/>
		
			<line fill="none" stroke="#F4F4F4" stroke-miterlimit="10" stroke-dasharray="1.9706,1.9706,1.9706,1.9706,1.9706,1.9706" x1="38.739" y1="53.299" x2="38.739" y2="30.638"/>
		<line fill="none" stroke="#F4F4F4" stroke-miterlimit="10" x1="38.739" y1="29.652" x2="38.739" y2="28.652"/>
	</g>
</g>
<rect x="35.989" y="23.402" fill="#F4F4F4" width="5.5" height="5.5"/>
</svg>
